<svg xmlns="http://www.w3.org/2000/svg" width="56" height="56" fill="none" viewBox="0 0 48 48"><path fill="url(#a)" fill-rule="evenodd" d="M21.004.185C9.163 1.66 0 11.76 0 24c0 13.255 10.745 24 24 24s24-10.745 24-24C48 10.786 37.32.066 24.122 0a28.352 28.352 0 0 0-3.118.185Z" clip-rule="evenodd"/><path fill="#fff" d="m12.153 29.453 5.795-9.193a2.96 2.96 0 0 1 4.28-.789l4.611 3.457a1.184 1.184 0 0 0 1.426-.005l6.223-4.724c.829-.631 1.914.365 1.361 1.248l-5.8 9.187a2.96 2.96 0 0 1-4.28.79l-4.611-3.458a1.184 1.184 0 0 0-1.425.005l-6.224 4.725c-.829.63-1.914-.36-1.356-1.243Z"/><defs><radialGradient id="a" cx="0" cy="0" r="1" gradientTransform="translate(8.723 50.234) scale(55.0346)" gradientUnits="userSpaceOnUse"><stop stop-color="#09F"/><stop offset=".61" stop-color="#A033FF"/><stop offset=".935" stop-color="#FF5280"/><stop offset="1" stop-color="#FF7061"/></radialGradient></defs></svg>