<svg width="56" height="64" fill="none" xmlns="http://www.w3.org/2000/svg"><path d="M6 1.5h44A4.5 4.5 0 0 1 54.5 6v36.724a4.5 4.5 0 0 1-2.067 3.786l-22 14.143a4.5 4.5 0 0 1-4.866 0l-22-14.143A4.5 4.5 0 0 1 1.5 42.724V6A4.5 4.5 0 0 1 6 1.5Z" fill="#fff" stroke="#CCC" stroke-width="3"/><path d="M16.263 31.73c-.735-.284-1.398-.64-1.848-1.374-.616-1.019-.45-2.037-.119-3.056.474-1.47 1.161-2.844 1.754-4.242.07-.165.118-.331.355-.355a.477.477 0 0 0 .38-.403c.213-1.137 1.137-1.137 1.966-1.16 1.99-.048 3.98-.024 5.971-.024 3.649 0 7.298 0 10.947.023.403 0 .782.071 1.185.071 1.682-.07 2.535.924 3.127 2.299.545 1.255 1.114 2.511 1.611 3.79.38.948.522 1.967.309 3.01-.143.616-.64.9-1.067 1.256-.331-.166-.403.118-.497.331-.142 0-.285-.023-.403.024-1.635.427-2.796-.355-3.815-1.516.806-.119.877-.26.71-1.043-.117-.545-.402-1.09-.426-1.611-.047-1.09-.402-2.133-.616-3.175-.166-.758-.213-1.635-.829-2.299-.19-.19-.308-.331-.569-.284-.284.048-.26.284-.284.498-.024.474.356.853.332 1.303-.071.924.497 1.682.592 2.559.095.687.427 1.327.521 1.99.095.711.38 1.375.545 2.062a4.586 4.586 0 0 1-2.274 1.445c-1.588.45-3.199.592-4.55-.71.048-.925.19-1.825.072-2.773-.119-1.019.165-2.061.047-3.104-.119-1.066 0-2.133-.166-3.222-.047-.308-.213-.332-.403-.427-.166-.071-.332-.047-.379.142-.095.427-.284.877-.237 1.303.119 1.233-.047 2.488.166 3.744.213 1.209-.426 2.346-.284 3.554.047.38.094.782-.071 1.138-.498.213-.972.521-1.517.592-.995.095-1.99.047-2.962-.095-1.113-.142-1.99-.64-2.559-1.635.356-.474.711-.924.806-1.564.071-.45.142-.947.284-1.398.26-.924.521-1.848.664-2.795.118-.735.402-1.422.426-2.18 0-.261.119-.522-.19-.64-.307-.095-.45.118-.615.379-.403.663-.617 1.398-.759 2.133-.142.663-.426 1.279-.545 1.942-.094.474-.142.996-.284 1.493-.237.83-.474 1.683-.403 2.56-.426.758-1.066 1.137-1.895 1.35-.616.166-1.232.166-1.848.142-.143-.047-.238-.047-.356-.047Z" fill="#000" fill-opacity=".1"/><path d="M28.04 31.47c.165-.379.118-.782.07-1.137-.142-1.209.498-2.346.285-3.554-.214-1.233-.048-2.488-.166-3.744-.048-.427.142-.877.237-1.303.047-.19.213-.214.379-.143.19.072.355.119.402.427.166 1.066.048 2.156.166 3.222.119 1.067-.166 2.085-.047 3.104.119.948-.047 1.849-.071 2.773-.095.355.118.71.071 1.042-.213 1.564 0 3.152-.071 4.715-.071 1.114.284 2.204.095 3.318-.024.19.07.426.26.379.427-.095.806.118 1.233.07 1.61-.236 3.222.048 4.833.025 1.209-.024 2.417.07 3.625.094.57 0 .782-.26.593-.829-.38-1.185-.19-2.393-.19-3.578-.023-1.493.142-3.01.569-4.478.095-.213.166-.474.497-.332.474 1.493.38 3.033.356 4.573-.024 1.02-.024 2.038-.071 3.08-.071 1.304.142 2.63 0 3.934-.024.26.095.521.07.805-.047.593-.33.806-.923.782-1.02-.047-2.038.048-3.057-.047-.83-.071-1.635.071-2.464.047-.687 0-1.398-.023-2.085.095-.64.095-1.232-.047-1.872-.024-1.445.048-2.89.024-4.36.095-.877.048-1.753.119-2.63.048-1.872-.143-3.744.118-5.616-.072-.52-.047-1.066.072-1.61-.118-.332-.118-.498-.26-.64-.64-.38-1.019-.403-2.108-.308-3.127.165-1.47-.048-2.891-.095-4.36a7.196 7.196 0 0 1 .213-2.014c.19-.735.024-1.47.237-2.204.071-.237.095-.45.284-.616.119 0 .213 0 .332.024.213.19.237.426.26.687.024.663.072 1.327.12 1.99.07.972.402 1.967.023 2.938-.024.048 0 .119 0 .166-.024.782.023 1.564-.071 2.322-.048.522.142.664.592.64.853-.024 1.73-.071 2.583-.071 1.28 0 2.559.071 3.838.071 1.256 0 2.536-.19 3.768.119.308.07.521-.024.521-.474-.024-1.375.142-2.749 0-4.1-.047-.545.166-1.018.047-1.54-.213-1.042-.165-2.061-.213-3.08Zm-3.958-16.942c-.071-.971.474-1.706 1.232-2.298.664-.498 1.758-.154 2.186.702.5 1 .5 1 1 0s2.24-.939 3.093-.3c.64.475.593 1.233.521 1.802-.213 1.327-.852 2.511-1.753 3.53-.474.545-.971 1.09-1.611 1.47-.45.26-.853.284-1.28-.072-.663-.521-1.35-.995-2.014-1.516-.52-.427-.758-.995-.971-1.564-.237-.521-.498-1.066-.403-1.754Z" fill="#CCC"/><path d="M20.978 30.333c-.213.024-.45.047-.64-.071-.094-.877.166-1.73.403-2.56.143-.497.213-.994.285-1.492.118-.687.426-1.28.545-1.943.142-.734.379-1.469.758-2.132.166-.261.308-.474.616-.38.308.095.19.38.19.64-.024.759-.309 1.446-.427 2.18-.142.948-.38 1.872-.663 2.796-.143.474-.214.948-.285 1.398-.07.64-.426 1.09-.782 1.564Zm15.142-.001c-.167-.687-.451-1.326-.546-2.037-.095-.664-.426-1.303-.521-1.99-.119-.877-.687-1.636-.593-2.56.048-.45-.355-.829-.331-1.303 0-.237 0-.45.284-.497.26-.048.38.094.569.284.616.663.663 1.54.829 2.298.237 1.043.569 2.085.616 3.175.024.545.308 1.067.427 1.612.142.782.047.924-.735 1.018Zm-9.432 6.351c-.118.545-.142 1.09-.142 1.659 0 .355-.379.284-.616.284-.19.024-.355 0-.426-.284a4.645 4.645 0 0 1 .047-2.062c.071-.284-.071-.592.095-.877.118-.165.166-.402.474-.379.26.024.308.237.355.427.095.403.142.806.213 1.232Zm5.072-.427c-.072.522.047 1.043.094 1.564.024.38-.166.64-.26.948-.048.19-.285.19-.498.19-.19 0-.26-.119-.308-.285-.308-.83-.071-1.635-.024-2.464.024-.26.095-.545.119-.806.024-.19.047-.355.284-.355.19 0 .332.047.427.237.165.308.19.64.165.971Z" fill="#CCC"/></svg>