<svg width="56" height="64" fill="none" xmlns="http://www.w3.org/2000/svg"><path d="M6 1.5h44A4.5 4.5 0 0 1 54.5 6v36.724a4.5 4.5 0 0 1-2.067 3.786l-22 14.143a4.5 4.5 0 0 1-4.866 0l-22-14.143A4.5 4.5 0 0 1 1.5 42.724V6A4.5 4.5 0 0 1 6 1.5Z" fill="#fff" stroke="#CCC" stroke-width="3"/><path d="M43.936 35.408c-.467.35-.762.872-1.131 1.32-.172.2-.32.424-.59.175-1.18-1.096-2.582-1.768-4.008-2.44-1.033-.474-2.164-.673-3.295-.773-.418-.025-.59-.199-.738-.572-.123-.35-.049-.723-.32-1.046-.172-.225.419-.623.861-.623.91 0 1.844-.05 2.754-.05 2.115.025 4.082.424 5.557 2.117.32.349.738.623.885 1.12.025.274.025.523.025.772ZM14.134 44c-1.23-.1-1.377-.548-.836-1.718.59-1.32 1.205-2.615 1.721-3.935.37-.921.836-1.793 1.132-2.764.27-.897.713-1.743 1.229-2.565.59-.996.885-2.142 1.426-3.163.762-1.494 1.23-3.137 2.09-4.582.246-.398.541-.797.836-1.17.197-.274.418-.498.517-.872.098-.323.368-.622.836-.398.245.124.467.249.639.423a96.071 96.071 0 0 1 2.114 2.366c.738.847 1.476 1.668 2.14 2.54.59.747 1.23 1.444 1.844 2.166a99.455 99.455 0 0 1 2.975 3.462c.394.473.86.896 1.058 1.519.098.324.418.548.713.747.639.473.934 1.146 1.106 1.893.05.224-.098.373-.32.473-.934.323-1.868.622-2.778.996-1.008.423-2.041.722-3.074 1.145a15.62 15.62 0 0 1-2.655.822c-.91.2-1.82.473-2.754.672-1.894.399-3.762.797-5.631 1.245-1.107.275-2.238.3-3.344.623-.27.1-.689 0-.984.075Zm1.476-1.395c.639-.15 1.303-.299 1.942-.473a117.72 117.72 0 0 0 2.803-.797c.689-.1 1.328-.274 2.017-.398.59-.1 1.204-.125 1.745-.473.099 0 .222.05.295.025.935-.25 1.894-.399 2.754-.797.664-.3 1.402-.2 2.017-.623.614-.299 1.254-.598 1.868-.797.984-.299 1.918-.747 2.926-.946-.172-.249-.22-.498-.418-.697a80.736 80.736 0 0 1-2.827-2.989 147.23 147.23 0 0 1-3.172-3.685c-.91-1.07-1.795-2.191-2.705-3.237-.566-.648-.738-1.52-1.45-2.042-.1-.075-.222-.424-.296-.374-.197.075-.344.299-.393.523-.074.548-.32.996-.615 1.444-.369.3-.393.797-.615 1.17-.713 1.296-1.204 2.74-1.991 3.985-.05.075-.074.2-.099.299-.86 1.47-1.549 2.988-2.213 4.557-.762 1.768-1.524 3.561-2.287 5.33.099.547-.467.82-.491 1.369.418-.125.811-.25 1.205-.374ZM25.396 12c.86-.024 1.107.772 1.352 1.345.517 1.146.689 2.416 1.131 3.561.468 1.22.295 2.316.074 3.486-.024.1-.049.2-.024.3.024 1.444-.32 1.917-1.697 2.315-.443.125-.59-.1-.713-.423-.27-.747-.246-1.569-.295-2.341-.074-.872-.221-1.768-.541-2.49-.566-1.32-1.082-2.69-2.016-3.81-.418-.498-.295-.847.32-1.096a22.758 22.758 0 0 0 1.794-.747c.172-.075.37-.075.615-.1Zm10.278 11.505c1.254.075 2.508-.249 3.762.075.566.15 1.033.548 1.574.747.147.05.147.2.123.324-.099.97-.172 1.942-.541 2.864-.172.373-.541.423-.836.398-1.18-.075-2.385.1-3.566.025-.688-.05-1.303-.025-1.967.224-.54.2-.934.548-1.352.872-.86.647-1.033.647-1.844 0-.566-.449-1.107-.947-1.77-1.295-.542-.3-.566-.573-.099-.947.59-.473.959-1.145 1.475-1.693.148-.15.27-.398.468-.473 1.057-.349 2.04-.947 3.172-1.021.467-.05.934-.175 1.401-.1Zm1.303 1.071c-1.18.025-2.016.274-2.877.373-1.352.175-2.508.673-3.368 1.769-.197.249-.443.547-.123.772.393.274.614 1.02 1.205.672.639-.349 1.327-.598 1.967-.921.811-.399 1.746-.698 2.606-.623.96.075 1.943.125 2.902.299.172.025.418.1.491-.2.074-.348.148-.672.222-1.02.147-.623-.123-.872-.713-.996-.861-.175-1.722-.25-2.312-.125Zm-1.5-4.656c.025-1.32-.737-2.242-2.065-2.566-.812-.199-.91-.348-.664-.946.074-.224.172-.299.394-.299 1.352 0 1.868-1.07 2.41-2.017.171-.349.048-.871.024-1.345 0-.298-.074-.622.344-.647.369-.025.787.025.885.473.197.847.541 1.619.812 2.416.196.597.59.722 1.106.747.295.025.615-.075.885.15.295.273.345.547-.049.721-.664.3-1.254.747-1.746 1.22-.59.573-.86 1.42-.737 2.291.073.523.024.972-.59 1.071-.468.075-.984-.498-1.033-1.095 0-.075.024-.15.024-.175Zm-.491-3.213c.172.15.32.274.467.398.614.623.91.623 1.45-.074.222-.274.468-.498.787-.772-.688-.025-.885-.648-1.278-.997-.344.673-.96.972-1.426 1.445Z" fill="#CCC"/><path d="M22.126 26.27c.737 2.24 1.377 4.532 2.557 6.598.91 1.57 1.795 3.188 2.877 4.657.467.623 1.057 1.071 1.623 1.569-.615.398-1.353.299-2.017.623-.86.398-1.844.547-2.754.797a.598.598 0 0 1-.295-.025c-.442-.872-1.18-1.52-1.623-2.366a4.893 4.893 0 0 0-.737-1.12c-1.008-1.096-1.598-2.367-1.943-3.81-.123-.474.05-1.072-.418-1.445.025-.1.05-.2.099-.299.811-1.27 1.278-2.69 1.991-3.984.246-.399.27-.897.64-1.196Zm-4.943 10.01c.541 1.22 1.451 2.191 2.14 3.337.344.573.786 1.096 1.032 1.718-.934.274-1.869.548-2.803.797-.64.174-1.303.299-1.942.473-.27-.299-.345-.772-.713-.996.762-1.768 1.524-3.536 2.286-5.329Z" fill="#000" fill-opacity=".1"/></svg>