<svg width="56" height="64" fill="none" xmlns="http://www.w3.org/2000/svg"><path d="M6 1.5h44A4.5 4.5 0 0 1 54.5 6v36.724a4.5 4.5 0 0 1-2.067 3.786l-22 14.143a4.5 4.5 0 0 1-4.866 0l-22-14.143A4.5 4.5 0 0 1 1.5 42.724V6A4.5 4.5 0 0 1 6 1.5Z" fill="#fff" stroke="#CCC" stroke-width="3"/><path d="M46.368 42.016c-.115.184-.208.369-.323.53-.254.278-.53.462-.83.047-.024-.047-.07-.116-.116-.116-.739-.092-1.108-.646-1.592-1.13-.554-.554-1.062-1.154-1.616-1.708-.554-.6-1.085-1.2-1.662-1.777-.438-.416-.853-.9-1.246-1.362-.3-.346-.6-.715-.923-1.062-.139-.138-.254-.115-.415-.069-.993.3-2.008.323-3.047.254-1.246-.046-2.492 0-3.738 0 .715.785.923 1.8 1.2 2.793.138.484.53.877.53 1.43 0 .577-.138.831-.715.924-.046 0-.116.023-.162 0-.415-.024-1.038.553-1.223-.231-.115-.485-.646-.67-.577-1.247.046-.276-.23-.553-.346-.807-.323-.808-.83-1.523-1.038-2.377-.07-.254-.162-.439-.439-.416-1.27.093-2.539-.3-3.831-.184.139.576.046 1.177-.162 1.73-.415 1.085-.923 2.193-1.2 3.3-.23.924-.946.693-1.384.993-.3.185-.924-.554-.762-.992.323-.923.346-1.916.739-2.77.346-.738.784-1.407.877-2.261-1.27-.07-2.493.092-3.74.161-.438.023-.9.023-1.338 0-.969-.046-1.938.046-2.908-.184-.553-.139-.854-.624-.923-1.2-.138-1.247 0-2.516-.3-3.74-.161-.715-.161-1.5-.069-2.261.07-.67-.07-1.292-.046-1.939.046-2.654-.092-5.33-.023-7.985.023-1.061.092-2.123.184-3.162.047-.577.347-1.154.762-1.638.115-.139.3-.162.462-.185.83-.092 1.661-.254 2.492-.23.739.023 1.454-.047 2.17 0 1.084.046 2.169-.093 3.253-.07 1.062.046 2.124.046 3.185.023a32.945 32.945 0 0 1 3.024-.092c1.315.023 2.654-.023 3.97.092.76.07 1.5 0 2.26-.046.809-.023 1.57.046 2.355.139.092.023.207.115.277.184.715.97 1.177 2.008 1.015 3.254-.023.116-.046.231-.023.346.277 1.131-.023 2.262 0 3.37.023.623-.023 1.246-.023 1.846 0 .646.185 1.293-.07 1.939-.068.161.047.3.07.438.185.808.254 1.639.139 2.47-.047.254.184.369.184.623-.023.415-.115.83-.254 1.2-.092.23-.046.392.07.485.438.323.715.738 1.015 1.177.323.461.692.923 1.038 1.384a30.3 30.3 0 0 1 2.608 3.831c.6 1.039 1.2 2.1 1.754 3.162.254.508.623.992.97 1.454.254.346.069.808.438 1.062.023.23.023.415.023.6ZM34.252 25.099c-.254-.208-.508-.485-.808-.623-.692-.323-1.2-1.085-2.238-.854.969.97 1.154 2.17 1.338 3.393-.092.484.208.9.277 1.361.116.97.554 1.547 1.477 1.87 1.293.461 2.1.138 2.631-1.131.07-.139.3-.231.139-.485-.393-.646-.693-1.361-1.131-1.938-.485-.6-.9-1.316-1.685-1.593Zm-19.94-.023c-.07.3.139.577.116.877-.139.992-.185 1.985 0 2.977.184.9.092 1.8.184 2.7.023.162 0 .393.231.37.646-.116 1.223.277 1.892.184.924-.138 1.87-.023 2.816-.115.83-.092 1.685-.092 2.516-.162.715-.046 1.43 0 2.123-.023.784-.023 1.592-.161 2.377-.069.761.07 1.5-.023 2.262.023.438.023.946 0 1.407 0 1.593.023 3.162.185 4.754.162.139 0 .347.069.393-.116.046-.207-.162-.369-.323-.415a1.606 1.606 0 0 0-.739-.046c-.461.069-.83-.139-1.154-.346-1.615-.97-2.054-2.54-2.169-4.224-.07-1.154-.346-2.192-1.015-3.139-.162-.23-.554-.253-.6-.6 0-.3.184-.392.415-.461 1.062-.277 2.123-.185 3.139.184.83.3 1.523.739 2.215 1.247.785.577 1.546 1.13 2.216 1.87.138-.832.23-1.64.092-2.447-.023-.162-.092-.323-.092-.508.023-1.062-.07-2.1-.208-3.139-.092-.738.07-1.5-.162-2.215-.023-.046.023-.116.047-.162.276-.854-.047-1.708-.07-2.562 0-.3-.23-.553-.646-.438-.323.07-.67.07-1.015.07-1.824-.07-3.647-.162-5.47-.162h-6.393c-2.77 0-5.515-.093-8.262.115-.623.046-.692.346-.854.716-.277.669.023 1.338 0 2.007-.023 1.408.139 2.816.139 4.2.023 1.224-.185 2.424-.162 3.647Zm22.825 9.208a58.634 58.634 0 0 1-.646-.877c-.139-.23-.3-.276-.6-.276-.762 0-1.524.115-2.308.069-.577-.023-1.2-.07-1.8 0-.785.092-1.547.046-2.308.023-.854-.023-1.708.046-2.562-.046-.739-.07-1.477.069-2.215.069-.9 0-1.824-.092-2.7 0-1.34.138-2.678 0-3.993.023-.416.023-.877.092-1.223-.046-.647-.254-1.293-.116-1.939-.185-.3-.023-.346.3-.277.508.092.277-.07.785.37.785 1.2 0 2.4-.116 3.6-.07.9.023 1.8-.161 2.7-.115.53.023 1.084.185 1.57.092 1.107-.23 2.191.07 3.3-.023.83-.07 1.684.023 2.515.07 1.27.069 2.539-.093 3.808-.024 1.5.093 3.046.023 4.708.023Zm.67-4.57c-.44.74-1.109.97-1.686 1.34-.138.092-.392.161-.161.346.484.415.808.992 1.315 1.384.208.162.323.116.393-.046.184-.415.577-.6.9-.877.138-.115.138-.161.092-.346-.138-.623-.762-1.015-.854-1.8Z" fill="#CCC"/><path d="M14.312 25.076c.762.67 1.731.577 2.608.692 1.385.162 2.723-.23 4.085-.53 1.939-.416 3.762-1.2 5.654-1.708.9-.231 1.8-.37 2.724-.416.046.346.415.346.6.6.646.947.923 1.985 1.015 3.139.115 1.685.554 3.277 2.146 4.2.347.208.716.416 1.154.346.231-.023.508-.023.739.047.184.046.37.207.323.415-.046.208-.254.115-.392.115-1.593.024-3.162-.138-4.755-.161-.461 0-.946.023-1.407 0-.762-.046-1.5.046-2.262-.023-.785-.07-1.57.069-2.377.069-.716.023-1.431-.023-2.123.023-.831.046-1.685.046-2.516.162-.923.115-1.892-.023-2.816.115-.669.115-1.246-.277-1.892-.185-.254.047-.23-.184-.23-.369-.07-.877.022-1.777-.162-2.677-.208-.992-.139-1.985-.023-2.977.046-.277-.185-.554-.093-.877Z" fill="#000" fill-opacity=".1"/><path d="M34.252 25.1c-.254.9-.9 1.5-1.708 1.915-.184-1.2-.369-2.424-1.338-3.393 1.038-.23 1.546.53 2.238.854.3.139.531.415.808.623Z" fill="#CCC"/><path d="M20.197 17.022c1.5.046 2.793 1.015 2.747 2.077-.092 1.938-1.246 2.815-2.723 2.884-1.224.07-2.378-1.269-2.331-2.515.046-1.316 1.154-2.47 2.307-2.446Z" fill="#000" fill-opacity=".1"/></svg>